<svg xmlns="http://www.w3.org/2000/svg" viewBox="0 0 1200 120" width="1200" height="120">
  <defs>
    <linearGradient id="bambooGreen" x1="0%" y1="0%" x2="0%" y2="100%">
      <stop offset="0%" style="stop-color:#4a7c59;stop-opacity:1" />
      <stop offset="100%" style="stop-color:#2d5a3d;stop-opacity:1" />
    </linearGradient>
    <linearGradient id="leafGreen" x1="0%" y1="0%" x2="100%" y2="0%">
      <stop offset="0%" style="stop-color:#5b9279;stop-opacity:0.9" />
      <stop offset="100%" style="stop-color:#3d6b4f;stop-opacity:0.9" />
    </linearGradient>
  </defs>
  
  <g id="bamboo-stalk-1">
    <path d="M 50,60 Q 180,58 300,60" fill="none" stroke="url(#bambooGreen)" stroke-width="8" stroke-linecap="round"/>
    <line x1="120" y1="48" x2="120" y2="72" stroke="#2d5a3d" stroke-width="3" opacity="0.6"/>
    <line x1="220" y1="47" x2="220" y2="71" stroke="#2d5a3d" stroke-width="3" opacity="0.6"/>
  </g>
  
  <g id="bamboo-stalk-2">
    <path d="M 300,40 Q 480,38 650,42" fill="none" stroke="url(#bambooGreen)" stroke-width="9" stroke-linecap="round"/>
    <line x1="400" y1="26" x2="400" y2="52" stroke="#2d5a3d" stroke-width="3" opacity="0.6"/>
    <line x1="550" y1="27" x2="550" y2="55" stroke="#2d5a3d" stroke-width="3" opacity="0.6"/>
  </g>
  
  <g id="bamboo-stalk-3">
    <path d="M 650,78 Q 850,75 1050,80" fill="none" stroke="url(#bambooGreen)" stroke-width="8" stroke-linecap="round"/>
    <line x1="780" y1="64" x2="780" y2="90" stroke="#2d5a3d" stroke-width="3" opacity="0.6"/>
    <line x1="920" y1="65" x2="920" y2="93" stroke="#2d5a3d" stroke-width="3" opacity="0.6"/>
  </g>
  
  <g id="bamboo-stalk-4">
    <path d="M 1050,55 Q 1110,53 1150,56" fill="none" stroke="url(#bambooGreen)" stroke-width="7" stroke-linecap="round"/>
    <line x1="1100" y1="42" x2="1100" y2="68" stroke="#2d5a3d" stroke-width="2.5" opacity="0.6"/>
  </g>
  
  <g id="leaves">
    <ellipse cx="140" cy="35" rx="35" ry="8" fill="url(#leafGreen)" transform="rotate(-25 140 35)"/>
    <ellipse cx="240" cy="32" rx="38" ry="9" fill="url(#leafGreen)" transform="rotate(20 240 32)"/>
    <ellipse cx="420" cy="18" rx="40" ry="10" fill="url(#leafGreen)" transform="rotate(-30 420 18)"/>
    <ellipse cx="570" cy="20" rx="36" ry="9" fill="url(#leafGreen)" transform="rotate(25 570 20)"/>
    <ellipse cx="800" cy="50" rx="42" ry="10" fill="url(#leafGreen)" transform="rotate(-20 800 50)"/>
    <ellipse cx="940" cy="48" rx="38" ry="9" fill="url(#leafGreen)" transform="rotate(28 940 48)"/>
    <ellipse cx="1120" cy="30" rx="35" ry="8" fill="url(#leafGreen)" transform="rotate(-22 1120 30)"/>
  </g>
</svg>
