<svg viewBox="0 0 2000 350" xmlns="http://www.w3.org/2000/svg">
  <defs>
    <g id="petal">
      <path d="M 0,-15 C 5,-15 8,-10 8,0 C 8,10 5,15 0,15 C -5,15 -8,10 -8,0 C -8,-10 -5,-15 0,-15 Z" fill="#FFB7C5"/>
    </g>
    
    <g id="petal-pink">
      <path d="M 0,-15 C 5,-15 8,-10 8,0 C 8,10 5,15 0,15 C -5,15 -8,10 -8,0 C -8,-10 -5,-15 0,-15 Z" fill="#FFC0CB"/>
    </g>
    
    <g id="petal-rose">
      <path d="M 0,-15 C 5,-15 8,-10 8,0 C 8,10 5,15 0,15 C -5,15 -8,10 -8,0 C -8,-10 -5,-15 0,-15 Z" fill="#FFA5B8"/>
    </g>
    
    <g id="fully-bloomed">
      <use href="#petal" transform="rotate(0)"/>
      <use href="#petal-pink" transform="rotate(72)"/>
      <use href="#petal" transform="rotate(144)"/>
      <use href="#petal-rose" transform="rotate(216)"/>
      <use href="#petal-pink" transform="rotate(288)"/>
      <circle cx="0" cy="0" r="4" fill="#FFD700"/>
      <circle cx="-3" cy="0" r="1.5" fill="#FFA500"/>
      <circle cx="3" cy="0" r="1.5" fill="#FFA500"/>
      <circle cx="0" cy="-3" r="1.5" fill="#FFA500"/>
      <circle cx="0" cy="3" r="1.5" fill="#FFA500"/>
      <circle cx="-2" cy="-2" r="1.5" fill="#FFA500"/>
      <circle cx="2" cy="-2" r="1.5" fill="#FFA500"/>
      <circle cx="-2" cy="2" r="1.5" fill="#FFA500"/>
      <circle cx="2" cy="2" r="1.5" fill="#FFA500"/>
    </g>
    
    <g id="half-bloomed">
      <use href="#petal" transform="rotate(-20)"/>
      <use href="#petal-pink" transform="rotate(50)"/>
      <use href="#petal-rose" transform="rotate(120)"/>
      <use href="#petal" transform="rotate(190)"/>
      <circle cx="0" cy="0" r="3" fill="#FFD700"/>
      <circle cx="-2" cy="0" r="1.2" fill="#FFA500"/>
      <circle cx="2" cy="0" r="1.2" fill="#FFA500"/>
      <circle cx="0" cy="-2" r="1.2" fill="#FFA500"/>
    </g>
    
    <g id="bud">
      <ellipse cx="0" cy="0" rx="6" ry="10" fill="#FFA5B8" opacity="0.95"/>
      <ellipse cx="-2" cy="0" rx="5" ry="9" fill="#FFB7C5" opacity="0.9"/>
      <ellipse cx="2" cy="0" rx="4" ry="8" fill="#FFC0CB" opacity="0.85"/>
    </g>
  </defs>
  
  <path d="M 50,320 Q 250,280 450,240 T 850,160 Q 1100,120 1350,110 T 1950,100" 
        stroke="#5D4E37" 
        stroke-width="16" 
        fill="none" 
        stroke-linecap="round"/>
  
  <path d="M 400,250 Q 450,200 500,180 Q 550,160 600,155" 
        stroke="#8B7355" 
        stroke-width="8" 
        fill="none" 
        stroke-linecap="round"/>
  
  <path d="M 900,150 Q 920,120 940,110 Q 960,100 980,98" 
        stroke="#8B7355" 
        stroke-width="7" 
        fill="none" 
        stroke-linecap="round"/>
  
  <path d="M 1500,108 Q 1540,90 1580,85 Q 1620,80 1660,82" 
        stroke="#8B7355" 
        stroke-width="6" 
        fill="none" 
        stroke-linecap="round"/>
  
  <g transform="translate(180, 290) rotate(25)">
    <use href="#bud"/>
  </g>
  
  <g transform="translate(350, 255) rotate(-15)">
    <use href="#bud"/>
  </g>
  
  <g transform="translate(520, 220) rotate(35)">
    <use href="#half-bloomed"/>
  </g>
  
  <g transform="translate(690, 190) rotate(-10)">
    <use href="#fully-bloomed"/>
  </g>
  
  <g transform="translate(860, 160) rotate(20)">
    <use href="#half-bloomed"/>
  </g>
  
  <g transform="translate(1030, 135) rotate(-25)">
    <use href="#fully-bloomed"/>
  </g>
  
  <g transform="translate(1200, 115) rotate(15)">
    <use href="#bud"/>
  </g>
  
  <g transform="translate(1370, 110) rotate(-30)">
    <use href="#fully-bloomed"/>
  </g>
  
  <g transform="translate(1540, 105) rotate(10)">
    <use href="#half-bloomed"/>
  </g>
  
  <g transform="translate(1710, 102) rotate(-20)">
    <use href="#fully-bloomed"/>
  </g>
  
  <g transform="translate(450, 210) rotate(15)">
    <use href="#petal-rose" opacity="0.92"/>
  </g>
  
  <g transform="translate(850, 140) rotate(-35)">
    <use href="#petal" opacity="0.90"/>
  </g>
  
  <g transform="translate(280, 180) rotate(65)">
    <use href="#petal-pink" opacity="0.93"/>
  </g>
  
  <g transform="translate(1420, 85) rotate(125)">
    <use href="#petal-rose" opacity="0.91"/>
  </g>
  
  <g transform="translate(1680, 70) rotate(-75)">
    <use href="#petal" opacity="0.94"/>
  </g>
</svg>
