<svg xmlns="http://www.w3.org/2000/svg" viewBox="0 0 1440 320"><path fill="#0099ff" fill-opacity="1" d="M0,96L16,128C32,160,64,224,96,224C128,224,160,160,192,144C224,128,256,160,288,197.3C320,235,352,277,384,288C416,299,448,277,480,256C512,235,544,213,576,181.3C608,149,640,107,672,112C704,117,736,171,768,176C800,181,832,139,864,133.3C896,128,928,160,960,160C992,160,1024,128,1056,112C1088,96,1120,96,1152,122.7C1184,149,1216,203,1248,229.3C1280,256,1312,256,1344,245.3C1376,235,1408,213,1424,202.7L1440,192L1440,320L1424,320C1408,320,1376,320,1344,320C1312,320,1280,320,1248,320C1216,320,1184,320,1152,320C1120,320,1088,320,1056,320C1024,320,992,320,960,320C928,320,896,320,864,320C832,320,800,320,768,320C736,320,704,320,672,320C640,320,608,320,576,320C544,320,512,320,480,320C448,320,416,320,384,320C352,320,320,320,288,320C256,320,224,320,192,320C160,320,128,320,96,320C64,320,32,320,16,320L0,320Z"></path></svg>
