<svg xmlns="http://www.w3.org/2000/svg" viewBox="0 0 1440 320"><path fill="#0099ff" fill-opacity="1" d="M0,64L8,74.7C16,85,32,107,48,122.7C64,139,80,149,96,154.7C112,160,128,160,144,176C160,192,176,224,192,234.7C208,245,224,235,240,218.7C256,203,272,181,288,181.3C304,181,320,203,336,208C352,213,368,203,384,186.7C400,171,416,149,432,133.3C448,117,464,107,480,96C496,85,512,75,528,101.3C544,128,560,192,576,208C592,224,608,192,624,197.3C640,203,656,245,672,234.7C688,224,704,160,720,122.7C736,85,752,75,768,96C784,117,800,171,816,176C832,181,848,139,864,138.7C880,139,896,181,912,192C928,203,944,181,960,181.3C976,181,992,203,1008,224C1024,245,1040,267,1056,250.7C1072,235,1088,181,1104,176C1120,171,1136,213,1152,197.3C1168,181,1184,107,1200,101.3C1216,96,1232,160,1248,202.7C1264,245,1280,267,1296,266.7C1312,267,1328,245,1344,218.7C1360,192,1376,160,1392,138.7C1408,117,1424,107,1432,101.3L1440,96L1440,320L1432,320C1424,320,1408,320,1392,320C1376,320,1360,320,1344,320C1328,320,1312,320,1296,320C1280,320,1264,320,1248,320C1232,320,1216,320,1200,320C1184,320,1168,320,1152,320C1136,320,1120,320,1104,320C1088,320,1072,320,1056,320C1040,320,1024,320,1008,320C992,320,976,320,960,320C944,320,928,320,912,320C896,320,880,320,864,320C848,320,832,320,816,320C800,320,784,320,768,320C752,320,736,320,720,320C704,320,688,320,672,320C656,320,640,320,624,320C608,320,592,320,576,320C560,320,544,320,528,320C512,320,496,320,480,320C464,320,448,320,432,320C416,320,400,320,384,320C368,320,352,320,336,320C320,320,304,320,288,320C272,320,256,320,240,320C224,320,208,320,192,320C176,320,160,320,144,320C128,320,112,320,96,320C80,320,64,320,48,320C32,320,16,320,8,320L0,320Z"></path></svg>
